%TF.GenerationSoftware,KiCad,Pcbnew,7.0.1*%
%TF.CreationDate,2023-04-24T21:53:49-04:00*%
%TF.ProjectId,lots-of-serial,6c6f7473-2d6f-4662-9d73-657269616c2e,rev?*%
%TF.SameCoordinates,Original*%
%TF.FileFunction,Copper,L2,Bot*%
%TF.FilePolarity,Positive*%
%FSLAX46Y46*%
G04 Gerber Fmt 4.6, Leading zero omitted, Abs format (unit mm)*
G04 Created by KiCad (PCBNEW 7.0.1) date 2023-04-24 21:53:49*
%MOMM*%
%LPD*%
G01*
G04 APERTURE LIST*
%TA.AperFunction,ComponentPad*%
%ADD10R,1.700000X1.700000*%
%TD*%
%TA.AperFunction,ComponentPad*%
%ADD11O,1.700000X1.700000*%
%TD*%
%TA.AperFunction,ComponentPad*%
%ADD12O,2.100000X1.000000*%
%TD*%
%TA.AperFunction,ComponentPad*%
%ADD13O,1.600000X1.000000*%
%TD*%
%TA.AperFunction,ViaPad*%
%ADD14C,0.700000*%
%TD*%
%TA.AperFunction,Conductor*%
%ADD15C,0.250000*%
%TD*%
%TA.AperFunction,Conductor*%
%ADD16C,0.200000*%
%TD*%
G04 APERTURE END LIST*
D10*
%TO.P,J5,1,Pin_1*%
%TO.N,Vo1*%
X105537000Y-60315000D03*
D11*
%TO.P,J5,2,Pin_2*%
%TO.N,232_TX1*%
X105537000Y-57775000D03*
%TO.P,J5,3,Pin_3*%
%TO.N,232_RX1*%
X105537000Y-55235000D03*
%TO.P,J5,4,Pin_4*%
%TO.N,GND*%
X105537000Y-52695000D03*
%TD*%
D10*
%TO.P,J8,1,Pin_1*%
%TO.N,Vo4*%
X105537000Y-94605000D03*
D11*
%TO.P,J8,2,Pin_2*%
%TO.N,232_TX4*%
X105537000Y-92065000D03*
%TO.P,J8,3,Pin_3*%
%TO.N,232_RX4*%
X105537000Y-89525000D03*
%TO.P,J8,4,Pin_4*%
%TO.N,GND*%
X105537000Y-86985000D03*
%TD*%
D10*
%TO.P,J7,1,Pin_1*%
%TO.N,Vo3*%
X105537000Y-83175000D03*
D11*
%TO.P,J7,2,Pin_2*%
%TO.N,232_TX3*%
X105537000Y-80635000D03*
%TO.P,J7,3,Pin_3*%
%TO.N,232_RX3*%
X105537000Y-78095000D03*
%TO.P,J7,4,Pin_4*%
%TO.N,GND*%
X105537000Y-75555000D03*
%TD*%
D10*
%TO.P,J6,1,Pin_1*%
%TO.N,Vo2*%
X105537000Y-71745000D03*
D11*
%TO.P,J6,2,Pin_2*%
%TO.N,232_TX2*%
X105537000Y-69205000D03*
%TO.P,J6,3,Pin_3*%
%TO.N,232_RX2*%
X105537000Y-66665000D03*
%TO.P,J6,4,Pin_4*%
%TO.N,GND*%
X105537000Y-64125000D03*
%TD*%
D10*
%TO.P,J4,1,Pin_1*%
%TO.N,Vo1*%
X92456000Y-60315000D03*
D11*
%TO.P,J4,2,Pin_2*%
%TO.N,TX1*%
X92456000Y-57775000D03*
%TO.P,J4,3,Pin_3*%
%TO.N,RX1*%
X92456000Y-55235000D03*
%TO.P,J4,4,Pin_4*%
%TO.N,GND*%
X92456000Y-52695000D03*
%TD*%
D10*
%TO.P,J1,1,Pin_1*%
%TO.N,Vo4*%
X92456000Y-94605000D03*
D11*
%TO.P,J1,2,Pin_2*%
%TO.N,TX4*%
X92456000Y-92065000D03*
%TO.P,J1,3,Pin_3*%
%TO.N,RX4*%
X92456000Y-89525000D03*
%TO.P,J1,4,Pin_4*%
%TO.N,GND*%
X92456000Y-86985000D03*
%TD*%
D10*
%TO.P,J2,1,Pin_1*%
%TO.N,Vo3*%
X92456000Y-83175000D03*
D11*
%TO.P,J2,2,Pin_2*%
%TO.N,TX3*%
X92456000Y-80635000D03*
%TO.P,J2,3,Pin_3*%
%TO.N,RX3*%
X92456000Y-78095000D03*
%TO.P,J2,4,Pin_4*%
%TO.N,GND*%
X92456000Y-75555000D03*
%TD*%
D10*
%TO.P,J3,1,Pin_1*%
%TO.N,Vo2*%
X92456000Y-71745000D03*
D11*
%TO.P,J3,2,Pin_2*%
%TO.N,TX2*%
X92456000Y-69205000D03*
%TO.P,J3,3,Pin_3*%
%TO.N,RX2*%
X92456000Y-66665000D03*
%TO.P,J3,4,Pin_4*%
%TO.N,GND*%
X92456000Y-64125000D03*
%TD*%
D12*
%TO.P,USB1,S1,SHIELD*%
%TO.N,unconnected-(USB1-SHIELD-PadS1)*%
X69170000Y-69340000D03*
D13*
X64990000Y-69340000D03*
D12*
X69170000Y-77980000D03*
D13*
X64990000Y-77980000D03*
%TD*%
D14*
%TO.N,Net-(D1-K)*%
X73152000Y-57531000D03*
X72898000Y-78232000D03*
%TO.N,Net-(D3-K)*%
X73914000Y-77851000D03*
X73152000Y-68580000D03*
%TO.N,RX4*%
X94361000Y-84963000D03*
%TO.N,RX2*%
X94361000Y-62103000D03*
%TO.N,232_TX4*%
X98171000Y-88392000D03*
%TO.N,232_RX4*%
X98679000Y-87630000D03*
%TO.N,232_TX2*%
X98171000Y-65532000D03*
%TO.N,232_RX2*%
X98679000Y-64770000D03*
%TO.N,Net-(USB1-CC2)*%
X67310000Y-78740000D03*
X68810498Y-74803000D03*
%TO.N,Net-(USB1-CC1)*%
X67310000Y-68580000D03*
X68815224Y-72353334D03*
%TD*%
D15*
%TO.N,Net-(D1-K)*%
X72263000Y-58420000D02*
X73152000Y-57531000D01*
X72263000Y-74549000D02*
X72263000Y-58420000D01*
X72898000Y-78232000D02*
X72263000Y-77597000D01*
X72263000Y-77597000D02*
X72263000Y-74549000D01*
%TO.N,Net-(D3-K)*%
X73152000Y-77089000D02*
X73914000Y-77851000D01*
X73152000Y-68580000D02*
X73152000Y-77089000D01*
D16*
%TO.N,Vo3*%
X92456000Y-83175000D02*
X105537000Y-83175000D01*
%TO.N,Vo1*%
X92456000Y-60315000D02*
X105537000Y-60315000D01*
%TO.N,RX4*%
X92456000Y-89525000D02*
X94361000Y-87620000D01*
X94361000Y-87620000D02*
X94361000Y-84963000D01*
%TO.N,RX2*%
X94361000Y-64760000D02*
X92456000Y-66665000D01*
X94361000Y-62103000D02*
X94361000Y-64760000D01*
%TO.N,232_RX4*%
X98679000Y-87630000D02*
X100574000Y-89525000D01*
X100574000Y-89525000D02*
X105537000Y-89525000D01*
%TO.N,232_TX4*%
X98171000Y-88392000D02*
X101844000Y-92065000D01*
X101844000Y-92065000D02*
X105537000Y-92065000D01*
%TO.N,232_RX2*%
X105537000Y-66665000D02*
X100574000Y-66665000D01*
X100574000Y-66665000D02*
X98679000Y-64770000D01*
%TO.N,232_TX2*%
X98171000Y-65532000D02*
X101854000Y-69215000D01*
X101854000Y-69215000D02*
X102997000Y-69215000D01*
X102997000Y-69215000D02*
X103007000Y-69205000D01*
X103007000Y-69205000D02*
X105537000Y-69205000D01*
%TO.N,Net-(USB1-CC2)*%
X68810498Y-74803000D02*
X68199000Y-74803000D01*
X67310000Y-75692000D02*
X67310000Y-78740000D01*
X68199000Y-74803000D02*
X67310000Y-75692000D01*
%TO.N,Net-(USB1-CC1)*%
X68815224Y-72353334D02*
X68162334Y-72353334D01*
X68162334Y-72353334D02*
X67691000Y-71882000D01*
X67310000Y-71501000D02*
X67310000Y-68580000D01*
X67691000Y-71882000D02*
X67310000Y-71501000D01*
%TD*%
M02*
