M48
; DRILL file {KiCad 7.0.1} date Mon Apr 24 21:53:49 2023
; FORMAT={-:-/ absolute / inch / decimal}
; #@! TF.CreationDate,2023-04-24T21:53:49-04:00
; #@! TF.GenerationSoftware,Kicad,Pcbnew,7.0.1
; #@! TF.FileFunction,Plated,1,2,PTH
FMAT,2
INCH
; #@! TA.AperFunction,Plated,PTH,ViaDrill
T1C0.0118
; #@! TA.AperFunction,Plated,PTH,ComponentDrill
T2C0.0236
; #@! TA.AperFunction,Plated,PTH,ComponentDrill
T3C0.0394
%
G90
G05
T1
X2.65Y-2.7
X2.65Y-3.1
X2.7091Y-2.945
X2.7093Y-2.8486
X2.87Y-3.08
X2.88Y-2.265
X2.88Y-2.7
X2.91Y-3.065
X3.715Y-2.445
X3.715Y-3.345
X3.865Y-2.58
X3.865Y-3.48
X3.885Y-2.55
X3.885Y-3.45
T3
X3.64Y-2.0746
X3.64Y-2.1746
X3.64Y-2.2746
X3.64Y-2.3746
X3.64Y-2.5246
X3.64Y-2.6246
X3.64Y-2.7246
X3.64Y-2.8246
X3.64Y-2.9746
X3.64Y-3.0746
X3.64Y-3.1746
X3.64Y-3.2746
X3.64Y-3.4246
X3.64Y-3.5246
X3.64Y-3.6246
X3.64Y-3.7246
X4.155Y-2.0746
X4.155Y-2.1746
X4.155Y-2.2746
X4.155Y-2.3746
X4.155Y-2.5246
X4.155Y-2.6246
X4.155Y-2.7246
X4.155Y-2.8246
X4.155Y-2.9746
X4.155Y-3.0746
X4.155Y-3.1746
X4.155Y-3.2746
X4.155Y-3.4246
X4.155Y-3.5246
X4.155Y-3.6246
X4.155Y-3.7246
T2
G00X2.5705Y-2.7299
M15
G01X2.5469Y-2.7299
M16
G05
G00X2.5705Y-3.0701
M15
G01X2.5469Y-3.0701
M16
G05
G00X2.7449Y-2.7299
M15
G01X2.7016Y-2.7299
M16
G05
G00X2.7449Y-3.0701
M15
G01X2.7016Y-3.0701
M16
G05
T0
M30
