%TF.GenerationSoftware,KiCad,Pcbnew,7.0.1*%
%TF.CreationDate,2023-04-24T21:53:49-04:00*%
%TF.ProjectId,lots-of-serial,6c6f7473-2d6f-4662-9d73-657269616c2e,rev?*%
%TF.SameCoordinates,Original*%
%TF.FileFunction,Legend,Top*%
%TF.FilePolarity,Positive*%
%FSLAX46Y46*%
G04 Gerber Fmt 4.6, Leading zero omitted, Abs format (unit mm)*
G04 Created by KiCad (PCBNEW 7.0.1) date 2023-04-24 21:53:49*
%MOMM*%
%LPD*%
G01*
G04 APERTURE LIST*
G04 Aperture macros list*
%AMRoundRect*
0 Rectangle with rounded corners*
0 $1 Rounding radius*
0 $2 $3 $4 $5 $6 $7 $8 $9 X,Y pos of 4 corners*
0 Add a 4 corners polygon primitive as box body*
4,1,4,$2,$3,$4,$5,$6,$7,$8,$9,$2,$3,0*
0 Add four circle primitives for the rounded corners*
1,1,$1+$1,$2,$3*
1,1,$1+$1,$4,$5*
1,1,$1+$1,$6,$7*
1,1,$1+$1,$8,$9*
0 Add four rect primitives between the rounded corners*
20,1,$1+$1,$2,$3,$4,$5,0*
20,1,$1+$1,$4,$5,$6,$7,0*
20,1,$1+$1,$6,$7,$8,$9,0*
20,1,$1+$1,$8,$9,$2,$3,0*%
G04 Aperture macros list end*
%ADD10C,0.150000*%
%ADD11C,0.120000*%
%ADD12C,0.100000*%
%ADD13RoundRect,0.150000X-0.675000X-0.150000X0.675000X-0.150000X0.675000X0.150000X-0.675000X0.150000X0*%
%ADD14RoundRect,0.140000X0.140000X0.170000X-0.140000X0.170000X-0.140000X-0.170000X0.140000X-0.170000X0*%
%ADD15RoundRect,0.140000X-0.140000X-0.170000X0.140000X-0.170000X0.140000X0.170000X-0.140000X0.170000X0*%
%ADD16RoundRect,0.140000X-0.170000X0.140000X-0.170000X-0.140000X0.170000X-0.140000X0.170000X0.140000X0*%
%ADD17RoundRect,0.140000X0.170000X-0.140000X0.170000X0.140000X-0.170000X0.140000X-0.170000X-0.140000X0*%
%ADD18R,1.700000X1.700000*%
%ADD19O,1.700000X1.700000*%
%ADD20R,1.500000X0.700000*%
%ADD21C,0.900000*%
%ADD22R,0.800000X1.000000*%
%ADD23RoundRect,0.135000X-0.185000X0.135000X-0.185000X-0.135000X0.185000X-0.135000X0.185000X0.135000X0*%
%ADD24RoundRect,0.147500X-0.147500X-0.172500X0.147500X-0.172500X0.147500X0.172500X-0.147500X0.172500X0*%
%ADD25RoundRect,0.135000X-0.135000X-0.185000X0.135000X-0.185000X0.135000X0.185000X-0.135000X0.185000X0*%
%ADD26C,0.650000*%
%ADD27R,1.450000X0.600000*%
%ADD28R,1.450000X0.300000*%
%ADD29O,2.100000X1.000000*%
%ADD30O,1.600000X1.000000*%
%ADD31R,1.200000X0.400000*%
%ADD32RoundRect,0.150000X0.825000X0.150000X-0.825000X0.150000X-0.825000X-0.150000X0.825000X-0.150000X0*%
%ADD33RoundRect,0.147500X0.147500X0.172500X-0.147500X0.172500X-0.147500X-0.172500X0.147500X-0.172500X0*%
%ADD34R,1.400000X1.200000*%
G04 APERTURE END LIST*
D10*
%TO.C,U5*%
X86106095Y-90267619D02*
X86106095Y-91077142D01*
X86106095Y-91077142D02*
X86153714Y-91172380D01*
X86153714Y-91172380D02*
X86201333Y-91220000D01*
X86201333Y-91220000D02*
X86296571Y-91267619D01*
X86296571Y-91267619D02*
X86487047Y-91267619D01*
X86487047Y-91267619D02*
X86582285Y-91220000D01*
X86582285Y-91220000D02*
X86629904Y-91172380D01*
X86629904Y-91172380D02*
X86677523Y-91077142D01*
X86677523Y-91077142D02*
X86677523Y-90267619D01*
X87629904Y-90267619D02*
X87153714Y-90267619D01*
X87153714Y-90267619D02*
X87106095Y-90743809D01*
X87106095Y-90743809D02*
X87153714Y-90696190D01*
X87153714Y-90696190D02*
X87248952Y-90648571D01*
X87248952Y-90648571D02*
X87487047Y-90648571D01*
X87487047Y-90648571D02*
X87582285Y-90696190D01*
X87582285Y-90696190D02*
X87629904Y-90743809D01*
X87629904Y-90743809D02*
X87677523Y-90839047D01*
X87677523Y-90839047D02*
X87677523Y-91077142D01*
X87677523Y-91077142D02*
X87629904Y-91172380D01*
X87629904Y-91172380D02*
X87582285Y-91220000D01*
X87582285Y-91220000D02*
X87487047Y-91267619D01*
X87487047Y-91267619D02*
X87248952Y-91267619D01*
X87248952Y-91267619D02*
X87153714Y-91220000D01*
X87153714Y-91220000D02*
X87106095Y-91172380D01*
%TO.C,U3*%
X86106095Y-67407619D02*
X86106095Y-68217142D01*
X86106095Y-68217142D02*
X86153714Y-68312380D01*
X86153714Y-68312380D02*
X86201333Y-68360000D01*
X86201333Y-68360000D02*
X86296571Y-68407619D01*
X86296571Y-68407619D02*
X86487047Y-68407619D01*
X86487047Y-68407619D02*
X86582285Y-68360000D01*
X86582285Y-68360000D02*
X86629904Y-68312380D01*
X86629904Y-68312380D02*
X86677523Y-68217142D01*
X86677523Y-68217142D02*
X86677523Y-67407619D01*
X87058476Y-67407619D02*
X87677523Y-67407619D01*
X87677523Y-67407619D02*
X87344190Y-67788571D01*
X87344190Y-67788571D02*
X87487047Y-67788571D01*
X87487047Y-67788571D02*
X87582285Y-67836190D01*
X87582285Y-67836190D02*
X87629904Y-67883809D01*
X87629904Y-67883809D02*
X87677523Y-67979047D01*
X87677523Y-67979047D02*
X87677523Y-68217142D01*
X87677523Y-68217142D02*
X87629904Y-68312380D01*
X87629904Y-68312380D02*
X87582285Y-68360000D01*
X87582285Y-68360000D02*
X87487047Y-68407619D01*
X87487047Y-68407619D02*
X87201333Y-68407619D01*
X87201333Y-68407619D02*
X87106095Y-68360000D01*
X87106095Y-68360000D02*
X87058476Y-68312380D01*
%TO.C,USB1*%
X65502619Y-75398094D02*
X66312142Y-75398094D01*
X66312142Y-75398094D02*
X66407380Y-75350475D01*
X66407380Y-75350475D02*
X66455000Y-75302856D01*
X66455000Y-75302856D02*
X66502619Y-75207618D01*
X66502619Y-75207618D02*
X66502619Y-75017142D01*
X66502619Y-75017142D02*
X66455000Y-74921904D01*
X66455000Y-74921904D02*
X66407380Y-74874285D01*
X66407380Y-74874285D02*
X66312142Y-74826666D01*
X66312142Y-74826666D02*
X65502619Y-74826666D01*
X66455000Y-74398094D02*
X66502619Y-74255237D01*
X66502619Y-74255237D02*
X66502619Y-74017142D01*
X66502619Y-74017142D02*
X66455000Y-73921904D01*
X66455000Y-73921904D02*
X66407380Y-73874285D01*
X66407380Y-73874285D02*
X66312142Y-73826666D01*
X66312142Y-73826666D02*
X66216904Y-73826666D01*
X66216904Y-73826666D02*
X66121666Y-73874285D01*
X66121666Y-73874285D02*
X66074047Y-73921904D01*
X66074047Y-73921904D02*
X66026428Y-74017142D01*
X66026428Y-74017142D02*
X65978809Y-74207618D01*
X65978809Y-74207618D02*
X65931190Y-74302856D01*
X65931190Y-74302856D02*
X65883571Y-74350475D01*
X65883571Y-74350475D02*
X65788333Y-74398094D01*
X65788333Y-74398094D02*
X65693095Y-74398094D01*
X65693095Y-74398094D02*
X65597857Y-74350475D01*
X65597857Y-74350475D02*
X65550238Y-74302856D01*
X65550238Y-74302856D02*
X65502619Y-74207618D01*
X65502619Y-74207618D02*
X65502619Y-73969523D01*
X65502619Y-73969523D02*
X65550238Y-73826666D01*
X65978809Y-73064761D02*
X66026428Y-72921904D01*
X66026428Y-72921904D02*
X66074047Y-72874285D01*
X66074047Y-72874285D02*
X66169285Y-72826666D01*
X66169285Y-72826666D02*
X66312142Y-72826666D01*
X66312142Y-72826666D02*
X66407380Y-72874285D01*
X66407380Y-72874285D02*
X66455000Y-72921904D01*
X66455000Y-72921904D02*
X66502619Y-73017142D01*
X66502619Y-73017142D02*
X66502619Y-73398094D01*
X66502619Y-73398094D02*
X65502619Y-73398094D01*
X65502619Y-73398094D02*
X65502619Y-73064761D01*
X65502619Y-73064761D02*
X65550238Y-72969523D01*
X65550238Y-72969523D02*
X65597857Y-72921904D01*
X65597857Y-72921904D02*
X65693095Y-72874285D01*
X65693095Y-72874285D02*
X65788333Y-72874285D01*
X65788333Y-72874285D02*
X65883571Y-72921904D01*
X65883571Y-72921904D02*
X65931190Y-72969523D01*
X65931190Y-72969523D02*
X65978809Y-73064761D01*
X65978809Y-73064761D02*
X65978809Y-73398094D01*
X66502619Y-71874285D02*
X66502619Y-72445713D01*
X66502619Y-72159999D02*
X65502619Y-72159999D01*
X65502619Y-72159999D02*
X65645476Y-72255237D01*
X65645476Y-72255237D02*
X65740714Y-72350475D01*
X65740714Y-72350475D02*
X65788333Y-72445713D01*
%TO.C,U2*%
X86106095Y-55977619D02*
X86106095Y-56787142D01*
X86106095Y-56787142D02*
X86153714Y-56882380D01*
X86153714Y-56882380D02*
X86201333Y-56930000D01*
X86201333Y-56930000D02*
X86296571Y-56977619D01*
X86296571Y-56977619D02*
X86487047Y-56977619D01*
X86487047Y-56977619D02*
X86582285Y-56930000D01*
X86582285Y-56930000D02*
X86629904Y-56882380D01*
X86629904Y-56882380D02*
X86677523Y-56787142D01*
X86677523Y-56787142D02*
X86677523Y-55977619D01*
X87106095Y-56072857D02*
X87153714Y-56025238D01*
X87153714Y-56025238D02*
X87248952Y-55977619D01*
X87248952Y-55977619D02*
X87487047Y-55977619D01*
X87487047Y-55977619D02*
X87582285Y-56025238D01*
X87582285Y-56025238D02*
X87629904Y-56072857D01*
X87629904Y-56072857D02*
X87677523Y-56168095D01*
X87677523Y-56168095D02*
X87677523Y-56263333D01*
X87677523Y-56263333D02*
X87629904Y-56406190D01*
X87629904Y-56406190D02*
X87058476Y-56977619D01*
X87058476Y-56977619D02*
X87677523Y-56977619D01*
%TO.C,U1*%
X77343095Y-73122619D02*
X77343095Y-73932142D01*
X77343095Y-73932142D02*
X77390714Y-74027380D01*
X77390714Y-74027380D02*
X77438333Y-74075000D01*
X77438333Y-74075000D02*
X77533571Y-74122619D01*
X77533571Y-74122619D02*
X77724047Y-74122619D01*
X77724047Y-74122619D02*
X77819285Y-74075000D01*
X77819285Y-74075000D02*
X77866904Y-74027380D01*
X77866904Y-74027380D02*
X77914523Y-73932142D01*
X77914523Y-73932142D02*
X77914523Y-73122619D01*
X78914523Y-74122619D02*
X78343095Y-74122619D01*
X78628809Y-74122619D02*
X78628809Y-73122619D01*
X78628809Y-73122619D02*
X78533571Y-73265476D01*
X78533571Y-73265476D02*
X78438333Y-73360714D01*
X78438333Y-73360714D02*
X78343095Y-73408333D01*
%TO.C,U6*%
X97282095Y-61692619D02*
X97282095Y-62502142D01*
X97282095Y-62502142D02*
X97329714Y-62597380D01*
X97329714Y-62597380D02*
X97377333Y-62645000D01*
X97377333Y-62645000D02*
X97472571Y-62692619D01*
X97472571Y-62692619D02*
X97663047Y-62692619D01*
X97663047Y-62692619D02*
X97758285Y-62645000D01*
X97758285Y-62645000D02*
X97805904Y-62597380D01*
X97805904Y-62597380D02*
X97853523Y-62502142D01*
X97853523Y-62502142D02*
X97853523Y-61692619D01*
X98758285Y-61692619D02*
X98567809Y-61692619D01*
X98567809Y-61692619D02*
X98472571Y-61740238D01*
X98472571Y-61740238D02*
X98424952Y-61787857D01*
X98424952Y-61787857D02*
X98329714Y-61930714D01*
X98329714Y-61930714D02*
X98282095Y-62121190D01*
X98282095Y-62121190D02*
X98282095Y-62502142D01*
X98282095Y-62502142D02*
X98329714Y-62597380D01*
X98329714Y-62597380D02*
X98377333Y-62645000D01*
X98377333Y-62645000D02*
X98472571Y-62692619D01*
X98472571Y-62692619D02*
X98663047Y-62692619D01*
X98663047Y-62692619D02*
X98758285Y-62645000D01*
X98758285Y-62645000D02*
X98805904Y-62597380D01*
X98805904Y-62597380D02*
X98853523Y-62502142D01*
X98853523Y-62502142D02*
X98853523Y-62264047D01*
X98853523Y-62264047D02*
X98805904Y-62168809D01*
X98805904Y-62168809D02*
X98758285Y-62121190D01*
X98758285Y-62121190D02*
X98663047Y-62073571D01*
X98663047Y-62073571D02*
X98472571Y-62073571D01*
X98472571Y-62073571D02*
X98377333Y-62121190D01*
X98377333Y-62121190D02*
X98329714Y-62168809D01*
X98329714Y-62168809D02*
X98282095Y-62264047D01*
%TO.C,U7*%
X97282095Y-84552619D02*
X97282095Y-85362142D01*
X97282095Y-85362142D02*
X97329714Y-85457380D01*
X97329714Y-85457380D02*
X97377333Y-85505000D01*
X97377333Y-85505000D02*
X97472571Y-85552619D01*
X97472571Y-85552619D02*
X97663047Y-85552619D01*
X97663047Y-85552619D02*
X97758285Y-85505000D01*
X97758285Y-85505000D02*
X97805904Y-85457380D01*
X97805904Y-85457380D02*
X97853523Y-85362142D01*
X97853523Y-85362142D02*
X97853523Y-84552619D01*
X98234476Y-84552619D02*
X98901142Y-84552619D01*
X98901142Y-84552619D02*
X98472571Y-85552619D01*
%TO.C,U4*%
X86106095Y-78837619D02*
X86106095Y-79647142D01*
X86106095Y-79647142D02*
X86153714Y-79742380D01*
X86153714Y-79742380D02*
X86201333Y-79790000D01*
X86201333Y-79790000D02*
X86296571Y-79837619D01*
X86296571Y-79837619D02*
X86487047Y-79837619D01*
X86487047Y-79837619D02*
X86582285Y-79790000D01*
X86582285Y-79790000D02*
X86629904Y-79742380D01*
X86629904Y-79742380D02*
X86677523Y-79647142D01*
X86677523Y-79647142D02*
X86677523Y-78837619D01*
X87582285Y-79170952D02*
X87582285Y-79837619D01*
X87344190Y-78790000D02*
X87106095Y-79504285D01*
X87106095Y-79504285D02*
X87725142Y-79504285D01*
D11*
%TO.C,U5*%
X86868000Y-88245000D02*
X83418000Y-88245000D01*
X86868000Y-88245000D02*
X88818000Y-88245000D01*
X86868000Y-93365000D02*
X84918000Y-93365000D01*
X86868000Y-93365000D02*
X88818000Y-93365000D01*
%TO.C,C19*%
X102850836Y-59965000D02*
X102635164Y-59965000D01*
X102850836Y-60685000D02*
X102635164Y-60685000D01*
%TO.C,C18*%
X97936164Y-68305000D02*
X98151836Y-68305000D01*
X97936164Y-67585000D02*
X98151836Y-67585000D01*
%TO.C,C17*%
X102850836Y-82825000D02*
X102635164Y-82825000D01*
X102850836Y-83545000D02*
X102635164Y-83545000D01*
%TO.C,C16*%
X97936164Y-90445000D02*
X98151836Y-90445000D01*
X97936164Y-91165000D02*
X98151836Y-91165000D01*
%TO.C,C15*%
X102002000Y-84982164D02*
X102002000Y-85197836D01*
X102722000Y-84982164D02*
X102722000Y-85197836D01*
%TO.C,C14*%
X102002000Y-88157164D02*
X102002000Y-88372836D01*
X102722000Y-88157164D02*
X102722000Y-88372836D01*
%TO.C,C13*%
X96246836Y-90445000D02*
X96031164Y-90445000D01*
X96246836Y-91165000D02*
X96031164Y-91165000D01*
%TO.C,C12*%
X96246836Y-68305000D02*
X96031164Y-68305000D01*
X96246836Y-67585000D02*
X96031164Y-67585000D01*
%TO.C,C11*%
X102722000Y-62337836D02*
X102722000Y-62122164D01*
X102002000Y-62337836D02*
X102002000Y-62122164D01*
%TO.C,C10*%
X102722000Y-65512836D02*
X102722000Y-65297164D01*
X102002000Y-65512836D02*
X102002000Y-65297164D01*
%TO.C,J5*%
X104207000Y-59045000D02*
X104207000Y-51365000D01*
X106867000Y-60315000D02*
X106867000Y-61645000D01*
X106867000Y-51365000D02*
X104207000Y-51365000D01*
X106867000Y-59045000D02*
X104207000Y-59045000D01*
X106867000Y-61645000D02*
X105537000Y-61645000D01*
X106867000Y-59045000D02*
X106867000Y-51365000D01*
%TO.C,J8*%
X104207000Y-93335000D02*
X104207000Y-85655000D01*
X106867000Y-94605000D02*
X106867000Y-95935000D01*
X106867000Y-85655000D02*
X104207000Y-85655000D01*
X106867000Y-93335000D02*
X104207000Y-93335000D01*
X106867000Y-95935000D02*
X105537000Y-95935000D01*
X106867000Y-93335000D02*
X106867000Y-85655000D01*
%TO.C,J7*%
X104207000Y-81905000D02*
X104207000Y-74225000D01*
X106867000Y-83175000D02*
X106867000Y-84505000D01*
X106867000Y-74225000D02*
X104207000Y-74225000D01*
X106867000Y-81905000D02*
X104207000Y-81905000D01*
X106867000Y-84505000D02*
X105537000Y-84505000D01*
X106867000Y-81905000D02*
X106867000Y-74225000D01*
%TO.C,J6*%
X104207000Y-70475000D02*
X104207000Y-62795000D01*
X106867000Y-71745000D02*
X106867000Y-73075000D01*
X106867000Y-62795000D02*
X104207000Y-62795000D01*
X106867000Y-70475000D02*
X104207000Y-70475000D01*
X106867000Y-73075000D02*
X105537000Y-73075000D01*
X106867000Y-70475000D02*
X106867000Y-62795000D01*
%TO.C,U3*%
X86868000Y-70505000D02*
X88818000Y-70505000D01*
X86868000Y-70505000D02*
X84918000Y-70505000D01*
X86868000Y-65385000D02*
X88818000Y-65385000D01*
X86868000Y-65385000D02*
X83418000Y-65385000D01*
%TO.C,SW1*%
X65491000Y-62305000D02*
X65491000Y-64005000D01*
X61351000Y-62505000D02*
X61141000Y-62705000D01*
X61351000Y-63805000D02*
X62641000Y-63805000D01*
X61351000Y-63805000D02*
X61141000Y-63605000D01*
X64441000Y-60455000D02*
X63651000Y-60455000D01*
X61141000Y-62705000D02*
X61141000Y-63605000D01*
X62641000Y-61055000D02*
X62641000Y-66755000D01*
X65491000Y-65305000D02*
X65491000Y-65505000D01*
X63651000Y-67355000D02*
X64441000Y-67355000D01*
X62641000Y-62505000D02*
X61351000Y-62505000D01*
%TO.C,SW2*%
X65491000Y-53415000D02*
X65491000Y-55115000D01*
X61351000Y-53615000D02*
X61141000Y-53815000D01*
X61351000Y-54915000D02*
X62641000Y-54915000D01*
X61351000Y-54915000D02*
X61141000Y-54715000D01*
X64441000Y-51565000D02*
X63651000Y-51565000D01*
X61141000Y-53815000D02*
X61141000Y-54715000D01*
X62641000Y-52165000D02*
X62641000Y-57865000D01*
X65491000Y-56415000D02*
X65491000Y-56615000D01*
X63651000Y-58465000D02*
X64441000Y-58465000D01*
X62641000Y-53615000D02*
X61351000Y-53615000D01*
%TO.C,SW3*%
X65476000Y-81806000D02*
X65476000Y-83506000D01*
X61336000Y-82006000D02*
X61126000Y-82206000D01*
X61336000Y-83306000D02*
X62626000Y-83306000D01*
X61336000Y-83306000D02*
X61126000Y-83106000D01*
X64426000Y-79956000D02*
X63636000Y-79956000D01*
X61126000Y-82206000D02*
X61126000Y-83106000D01*
X62626000Y-80556000D02*
X62626000Y-86256000D01*
X65476000Y-84806000D02*
X65476000Y-85006000D01*
X63636000Y-86856000D02*
X64426000Y-86856000D01*
X62626000Y-82006000D02*
X61336000Y-82006000D01*
%TO.C,SW4*%
X62626000Y-90896000D02*
X61336000Y-90896000D01*
X63636000Y-95746000D02*
X64426000Y-95746000D01*
X65476000Y-93696000D02*
X65476000Y-93896000D01*
X62626000Y-89446000D02*
X62626000Y-95146000D01*
X61126000Y-91096000D02*
X61126000Y-91996000D01*
X64426000Y-88846000D02*
X63636000Y-88846000D01*
X61336000Y-92196000D02*
X61126000Y-91996000D01*
X61336000Y-92196000D02*
X62626000Y-92196000D01*
X61336000Y-90896000D02*
X61126000Y-91096000D01*
X65476000Y-90696000D02*
X65476000Y-92396000D01*
%TO.C,J4*%
X91126000Y-59045000D02*
X91126000Y-51365000D01*
X93786000Y-60315000D02*
X93786000Y-61645000D01*
X93786000Y-51365000D02*
X91126000Y-51365000D01*
X93786000Y-59045000D02*
X91126000Y-59045000D01*
X93786000Y-61645000D02*
X92456000Y-61645000D01*
X93786000Y-59045000D02*
X93786000Y-51365000D01*
%TO.C,J1*%
X91126000Y-93335000D02*
X91126000Y-85655000D01*
X93786000Y-94605000D02*
X93786000Y-95935000D01*
X93786000Y-85655000D02*
X91126000Y-85655000D01*
X93786000Y-93335000D02*
X91126000Y-93335000D01*
X93786000Y-95935000D02*
X92456000Y-95935000D01*
X93786000Y-93335000D02*
X93786000Y-85655000D01*
%TO.C,J2*%
X91126000Y-81905000D02*
X91126000Y-74225000D01*
X93786000Y-83175000D02*
X93786000Y-84505000D01*
X93786000Y-74225000D02*
X91126000Y-74225000D01*
X93786000Y-81905000D02*
X91126000Y-81905000D01*
X93786000Y-84505000D02*
X92456000Y-84505000D01*
X93786000Y-81905000D02*
X93786000Y-74225000D01*
%TO.C,J3*%
X91126000Y-70475000D02*
X91126000Y-62795000D01*
X93786000Y-71745000D02*
X93786000Y-73075000D01*
X93786000Y-62795000D02*
X91126000Y-62795000D01*
X93786000Y-70475000D02*
X91126000Y-70475000D01*
X93786000Y-73075000D02*
X92456000Y-73075000D01*
X93786000Y-70475000D02*
X93786000Y-62795000D01*
%TO.C,C1*%
X80412000Y-80752836D02*
X80412000Y-80537164D01*
X81132000Y-80752836D02*
X81132000Y-80537164D01*
%TO.C,R3*%
X81025000Y-67283359D02*
X81025000Y-67590641D01*
X80265000Y-67283359D02*
X80265000Y-67590641D01*
D12*
%TO.C,D4*%
X71604000Y-90805000D02*
G75*
G03*
X71604000Y-90805000I-50000J0D01*
G01*
D11*
%TO.C,C8*%
X86760164Y-75713000D02*
X86975836Y-75713000D01*
X86760164Y-76433000D02*
X86975836Y-76433000D01*
D12*
%TO.C,D5*%
X75414000Y-93853000D02*
G75*
G03*
X75414000Y-93853000I-50000J0D01*
G01*
D11*
%TO.C,R1*%
X67664359Y-67438000D02*
X67971641Y-67438000D01*
X67664359Y-68198000D02*
X67971641Y-68198000D01*
%TO.C,C2*%
X77997164Y-82571000D02*
X78212836Y-82571000D01*
X77997164Y-83291000D02*
X78212836Y-83291000D01*
%TO.C,USB1*%
X67940000Y-68960000D02*
X65940000Y-68960000D01*
X64040000Y-68960000D02*
X62140000Y-68960000D01*
X62140000Y-68960000D02*
X62140000Y-78360000D01*
X67940000Y-78360000D02*
X65940000Y-78360000D01*
X64040000Y-78360000D02*
X62140000Y-78360000D01*
%TO.C,R4*%
X73278000Y-76300359D02*
X73278000Y-76607641D01*
X72518000Y-76300359D02*
X72518000Y-76607641D01*
%TO.C,U2*%
X86868000Y-53955000D02*
X83418000Y-53955000D01*
X86868000Y-53955000D02*
X88818000Y-53955000D01*
X86868000Y-59075000D02*
X84918000Y-59075000D01*
X86868000Y-59075000D02*
X88818000Y-59075000D01*
%TO.C,C4*%
X79142000Y-67544836D02*
X79142000Y-67329164D01*
X79862000Y-67544836D02*
X79862000Y-67329164D01*
D10*
%TO.C,U1*%
X80180000Y-78740000D02*
X80180000Y-78260000D01*
X80180000Y-78740000D02*
X76030000Y-78740000D01*
X80180000Y-78260000D02*
X81305000Y-78260000D01*
X80180000Y-68580000D02*
X80180000Y-69060000D01*
X80180000Y-68580000D02*
X76030000Y-68580000D01*
X76030000Y-78740000D02*
X76030000Y-78260000D01*
X76030000Y-68580000D02*
X76030000Y-69060000D01*
D11*
%TO.C,U6*%
X98044000Y-67290000D02*
X101494000Y-67290000D01*
X98044000Y-67290000D02*
X96094000Y-67290000D01*
X98044000Y-57170000D02*
X99994000Y-57170000D01*
X98044000Y-57170000D02*
X96094000Y-57170000D01*
%TO.C,C7*%
X86760164Y-64283000D02*
X86975836Y-64283000D01*
X86760164Y-65003000D02*
X86975836Y-65003000D01*
%TO.C,C3*%
X75544000Y-79775164D02*
X75544000Y-79990836D01*
X74824000Y-79775164D02*
X74824000Y-79990836D01*
%TO.C,U7*%
X98044000Y-90150000D02*
X101494000Y-90150000D01*
X98044000Y-90150000D02*
X96094000Y-90150000D01*
X98044000Y-80030000D02*
X99994000Y-80030000D01*
X98044000Y-80030000D02*
X96094000Y-80030000D01*
%TO.C,U4*%
X86868000Y-76815000D02*
X83418000Y-76815000D01*
X86868000Y-76815000D02*
X88818000Y-76815000D01*
X86868000Y-81935000D02*
X84918000Y-81935000D01*
X86868000Y-81935000D02*
X88818000Y-81935000D01*
%TO.C,R5*%
X74294000Y-76300359D02*
X74294000Y-76607641D01*
X73534000Y-76300359D02*
X73534000Y-76607641D01*
%TO.C,C5*%
X73681000Y-72497836D02*
X73681000Y-72282164D01*
X74401000Y-72497836D02*
X74401000Y-72282164D01*
%TO.C,C9*%
X86760164Y-87143000D02*
X86975836Y-87143000D01*
X86760164Y-87863000D02*
X86975836Y-87863000D01*
D12*
%TO.C,D2*%
X71604000Y-79375000D02*
G75*
G03*
X71604000Y-79375000I-50000J0D01*
G01*
%TO.C,D1*%
X73784000Y-56515000D02*
G75*
G03*
X73784000Y-56515000I-50000J0D01*
G01*
D11*
%TO.C,R6*%
X78840359Y-94233000D02*
X79147641Y-94233000D01*
X78840359Y-93473000D02*
X79147641Y-93473000D01*
%TO.C,C6*%
X86760164Y-53573000D02*
X86975836Y-53573000D01*
X86760164Y-52853000D02*
X86975836Y-52853000D01*
D12*
%TO.C,D3*%
X73784000Y-67945000D02*
G75*
G03*
X73784000Y-67945000I-50000J0D01*
G01*
D11*
%TO.C,R2*%
X67664359Y-79122000D02*
X67971641Y-79122000D01*
X67664359Y-79882000D02*
X67971641Y-79882000D01*
%TO.C,Y1*%
X76105000Y-78995000D02*
X76105000Y-82295000D01*
X76105000Y-82295000D02*
X80105000Y-82295000D01*
%TD*%
%LPC*%
D13*
%TO.C,U5*%
X84243000Y-88900000D03*
X84243000Y-90170000D03*
X84243000Y-91440000D03*
X84243000Y-92710000D03*
X89493000Y-92710000D03*
X89493000Y-91440000D03*
X89493000Y-90170000D03*
X89493000Y-88900000D03*
%TD*%
D14*
%TO.C,C19*%
X103223000Y-60325000D03*
X102263000Y-60325000D03*
%TD*%
D15*
%TO.C,C18*%
X97564000Y-67945000D03*
X98524000Y-67945000D03*
%TD*%
D14*
%TO.C,C17*%
X103223000Y-83185000D03*
X102263000Y-83185000D03*
%TD*%
D15*
%TO.C,C16*%
X98524000Y-90805000D03*
X97564000Y-90805000D03*
%TD*%
D16*
%TO.C,C15*%
X102362000Y-84610000D03*
X102362000Y-85570000D03*
%TD*%
%TO.C,C14*%
X102362000Y-87785000D03*
X102362000Y-88745000D03*
%TD*%
D14*
%TO.C,C13*%
X96619000Y-90805000D03*
X95659000Y-90805000D03*
%TD*%
%TO.C,C12*%
X95659000Y-67945000D03*
X96619000Y-67945000D03*
%TD*%
D17*
%TO.C,C11*%
X102362000Y-62710000D03*
X102362000Y-61750000D03*
%TD*%
%TO.C,C10*%
X102362000Y-65885000D03*
X102362000Y-64925000D03*
%TD*%
D18*
%TO.C,J5*%
X105537000Y-60315000D03*
D19*
X105537000Y-57775000D03*
X105537000Y-55235000D03*
X105537000Y-52695000D03*
%TD*%
D18*
%TO.C,J8*%
X105537000Y-94605000D03*
D19*
X105537000Y-92065000D03*
X105537000Y-89525000D03*
X105537000Y-86985000D03*
%TD*%
D18*
%TO.C,J7*%
X105537000Y-83175000D03*
D19*
X105537000Y-80635000D03*
X105537000Y-78095000D03*
X105537000Y-75555000D03*
%TD*%
D18*
%TO.C,J6*%
X105537000Y-71745000D03*
D19*
X105537000Y-69205000D03*
X105537000Y-66665000D03*
X105537000Y-64125000D03*
%TD*%
D13*
%TO.C,U3*%
X89493000Y-66040000D03*
X89493000Y-67310000D03*
X89493000Y-68580000D03*
X89493000Y-69850000D03*
X84243000Y-69850000D03*
X84243000Y-68580000D03*
X84243000Y-67310000D03*
X84243000Y-66040000D03*
%TD*%
D20*
%TO.C,SW1*%
X65801000Y-66155000D03*
X65801000Y-64655000D03*
X65801000Y-61655000D03*
D21*
X64041000Y-62405000D03*
X64041000Y-65405000D03*
D22*
X65151000Y-60255000D03*
X62941000Y-67555000D03*
X62941000Y-60255000D03*
X65151000Y-67555000D03*
%TD*%
D20*
%TO.C,SW2*%
X65801000Y-57265000D03*
X65801000Y-55765000D03*
X65801000Y-52765000D03*
D21*
X64041000Y-53515000D03*
X64041000Y-56515000D03*
D22*
X65151000Y-51365000D03*
X62941000Y-58665000D03*
X62941000Y-51365000D03*
X65151000Y-58665000D03*
%TD*%
D20*
%TO.C,SW3*%
X65786000Y-85656000D03*
X65786000Y-84156000D03*
X65786000Y-81156000D03*
D21*
X64026000Y-81906000D03*
X64026000Y-84906000D03*
D22*
X65136000Y-79756000D03*
X62926000Y-87056000D03*
X62926000Y-79756000D03*
X65136000Y-87056000D03*
%TD*%
%TO.C,SW4*%
X65136000Y-95946000D03*
X62926000Y-88646000D03*
X62926000Y-95946000D03*
X65136000Y-88646000D03*
D21*
X64026000Y-93796000D03*
X64026000Y-90796000D03*
D20*
X65786000Y-90046000D03*
X65786000Y-93046000D03*
X65786000Y-94546000D03*
%TD*%
D18*
%TO.C,J4*%
X92456000Y-60315000D03*
D19*
X92456000Y-57775000D03*
X92456000Y-55235000D03*
X92456000Y-52695000D03*
%TD*%
D18*
%TO.C,J1*%
X92456000Y-94605000D03*
D19*
X92456000Y-92065000D03*
X92456000Y-89525000D03*
X92456000Y-86985000D03*
%TD*%
D18*
%TO.C,J2*%
X92456000Y-83175000D03*
D19*
X92456000Y-80635000D03*
X92456000Y-78095000D03*
X92456000Y-75555000D03*
%TD*%
D18*
%TO.C,J3*%
X92456000Y-71745000D03*
D19*
X92456000Y-69205000D03*
X92456000Y-66665000D03*
X92456000Y-64125000D03*
%TD*%
D17*
%TO.C,C1*%
X80772000Y-81125000D03*
X80772000Y-80165000D03*
%TD*%
D23*
%TO.C,R3*%
X80645000Y-66927000D03*
X80645000Y-67947000D03*
%TD*%
D24*
%TO.C,D4*%
X72159000Y-90805000D03*
X73129000Y-90805000D03*
%TD*%
D15*
%TO.C,C8*%
X86388000Y-76073000D03*
X87348000Y-76073000D03*
%TD*%
D24*
%TO.C,D5*%
X75969000Y-93853000D03*
X76939000Y-93853000D03*
%TD*%
D25*
%TO.C,R1*%
X67308000Y-67818000D03*
X68328000Y-67818000D03*
%TD*%
D15*
%TO.C,C2*%
X77625000Y-82931000D03*
X78585000Y-82931000D03*
%TD*%
D26*
%TO.C,USB1*%
X68640000Y-70770000D03*
X68640000Y-76550000D03*
D27*
X70085000Y-70410000D03*
X70085000Y-71210000D03*
D28*
X70085000Y-72410000D03*
X70085000Y-73410000D03*
X70085000Y-73910000D03*
X70085000Y-74910000D03*
D27*
X70085000Y-76110000D03*
X70085000Y-76910000D03*
X70085000Y-76910000D03*
X70085000Y-76110000D03*
D28*
X70085000Y-75410000D03*
X70085000Y-74410000D03*
X70085000Y-72910000D03*
X70085000Y-71910000D03*
D27*
X70085000Y-71210000D03*
X70085000Y-70410000D03*
D29*
X69170000Y-69340000D03*
D30*
X64990000Y-69340000D03*
D29*
X69170000Y-77980000D03*
D30*
X64990000Y-77980000D03*
%TD*%
D23*
%TO.C,R4*%
X72898000Y-75944000D03*
X72898000Y-76964000D03*
%TD*%
D13*
%TO.C,U2*%
X84243000Y-54610000D03*
X84243000Y-55880000D03*
X84243000Y-57150000D03*
X84243000Y-58420000D03*
X89493000Y-58420000D03*
X89493000Y-57150000D03*
X89493000Y-55880000D03*
X89493000Y-54610000D03*
%TD*%
D17*
%TO.C,C4*%
X79502000Y-67917000D03*
X79502000Y-66957000D03*
%TD*%
D31*
%TO.C,U1*%
X80705000Y-77787500D03*
X80705000Y-77152500D03*
X80705000Y-76517500D03*
X80705000Y-75882500D03*
X80705000Y-75247500D03*
X80705000Y-74612500D03*
X80705000Y-73977500D03*
X80705000Y-73342500D03*
X80705000Y-72707500D03*
X80705000Y-72072500D03*
X80705000Y-71437500D03*
X80705000Y-70802500D03*
X80705000Y-70167500D03*
X80705000Y-69532500D03*
X75505000Y-69532500D03*
X75505000Y-70167500D03*
X75505000Y-70802500D03*
X75505000Y-71437500D03*
X75505000Y-72072500D03*
X75505000Y-72707500D03*
X75505000Y-73342500D03*
X75505000Y-73977500D03*
X75505000Y-74612500D03*
X75505000Y-75247500D03*
X75505000Y-75882500D03*
X75505000Y-76517500D03*
X75505000Y-77152500D03*
X75505000Y-77787500D03*
%TD*%
D32*
%TO.C,U6*%
X100519000Y-66675000D03*
X100519000Y-65405000D03*
X100519000Y-64135000D03*
X100519000Y-62865000D03*
X100519000Y-61595000D03*
X100519000Y-60325000D03*
X100519000Y-59055000D03*
X100519000Y-57785000D03*
X95569000Y-57785000D03*
X95569000Y-59055000D03*
X95569000Y-60325000D03*
X95569000Y-61595000D03*
X95569000Y-62865000D03*
X95569000Y-64135000D03*
X95569000Y-65405000D03*
X95569000Y-66675000D03*
%TD*%
D15*
%TO.C,C7*%
X86388000Y-64643000D03*
X87348000Y-64643000D03*
%TD*%
D16*
%TO.C,C3*%
X75184000Y-79403000D03*
X75184000Y-80363000D03*
%TD*%
D32*
%TO.C,U7*%
X100519000Y-89535000D03*
X100519000Y-88265000D03*
X100519000Y-86995000D03*
X100519000Y-85725000D03*
X100519000Y-84455000D03*
X100519000Y-83185000D03*
X100519000Y-81915000D03*
X100519000Y-80645000D03*
X95569000Y-80645000D03*
X95569000Y-81915000D03*
X95569000Y-83185000D03*
X95569000Y-84455000D03*
X95569000Y-85725000D03*
X95569000Y-86995000D03*
X95569000Y-88265000D03*
X95569000Y-89535000D03*
%TD*%
D13*
%TO.C,U4*%
X84243000Y-77470000D03*
X84243000Y-78740000D03*
X84243000Y-80010000D03*
X84243000Y-81280000D03*
X89493000Y-81280000D03*
X89493000Y-80010000D03*
X89493000Y-78740000D03*
X89493000Y-77470000D03*
%TD*%
D23*
%TO.C,R5*%
X73914000Y-75944000D03*
X73914000Y-76964000D03*
%TD*%
D17*
%TO.C,C5*%
X74041000Y-72870000D03*
X74041000Y-71910000D03*
%TD*%
D15*
%TO.C,C9*%
X86388000Y-87503000D03*
X87348000Y-87503000D03*
%TD*%
D24*
%TO.C,D2*%
X72159000Y-79375000D03*
X73129000Y-79375000D03*
%TD*%
D33*
%TO.C,D1*%
X73129000Y-56515000D03*
X72159000Y-56515000D03*
%TD*%
D25*
%TO.C,R6*%
X79504000Y-93853000D03*
X78484000Y-93853000D03*
%TD*%
D15*
%TO.C,C6*%
X87348000Y-53213000D03*
X86388000Y-53213000D03*
%TD*%
D33*
%TO.C,D3*%
X73129000Y-67945000D03*
X72159000Y-67945000D03*
%TD*%
D25*
%TO.C,R2*%
X67308000Y-79502000D03*
X68328000Y-79502000D03*
%TD*%
D34*
%TO.C,Y1*%
X77005000Y-81495000D03*
X79205000Y-81495000D03*
X79205000Y-79795000D03*
X77005000Y-79795000D03*
%TD*%
M02*
